<?xml version="1.0" encoding="utf-8"?>
<!-- Generator: Adobe Illustrator 25.3.1, SVG Export Plug-In . SVG Version: 6.00 Build 0)  -->
<svg version="1.1" id="Layer_1" xmlns="http://www.w3.org/2000/svg" xmlns:xlink="http://www.w3.org/1999/xlink" x="0px" y="0px"
	 viewBox="0 0 503.4 361.8" style="enable-background:new 0 0 503.4 361.8;" xml:space="preserve">
<style type="text/css">
	.st0{fill:#FFFFFF;}
</style>
<g>
	<g>
		<path class="st0" d="M346.1,102c0,40.4-33.4,73.2-74.5,73.2c-21.4,0-40.6-8.8-54.2-23c0,0,0,0-0.1,0
			c12.6,20.6,35.3,34.3,61.2,34.3c39.6,0,71.8-32.2,71.8-71.8c0-10.4-2.2-20.2-6.1-29.1C345.5,90.9,346.1,96.4,346.1,102"/>
		<path class="st0" d="M157.3,183.3c0-40.4,33.4-73.2,74.5-73.2c21.4,0,40.6,8.8,54.2,23c0,0,0,0,0.1,0
			c-12.6-20.6-35.3-34.3-61.2-34.3c-39.6,0-71.8,32.2-71.8,71.8c0,10.4,2.2,20.2,6.1,29.1C158,194.4,157.3,188.9,157.3,183.3"/>
	</g>
	<g>
		<path class="st0" d="M85,269.5c0-0.6-0.1-1.3-0.2-1.9c-0.6-2.6-2.8-4.8-6-4.8c-4.4,0-6.9,3.9-6.9,9c0,5.1,2.5,8.7,6.9,8.7
			c2.8,0,5.3-1.9,6-4.9c0.2-0.6,0.2-1.3,0.2-2V269.5z M92,245.9v31.9c0,2.8,0.1,5.9,0.2,7.7h-6.1l-0.3-4.3h-0.1c-1.6,3-5,5-8.9,5
			c-6.6,0-11.8-5.6-11.8-14c-0.1-9.2,5.7-14.6,12.3-14.6c3.8,0,6.5,1.5,7.7,3.5H85v-15.1H92z"/>
		<path class="st0" d="M116.9,268.9c0.1-2.5-1.1-6.7-5.7-6.7c-4.3,0-6.1,3.9-6.4,6.7H116.9z M104.8,273.8c0.2,5,4,7.1,8.4,7.1
			c3.2,0,5.5-0.5,7.6-1.2l1,4.7c-2.4,1-5.6,1.7-9.6,1.7c-8.9,0-14.1-5.5-14.1-13.8c0-7.6,4.6-14.7,13.4-14.7
			c8.9,0,11.8,7.3,11.8,13.3c0,1.3-0.1,2.3-0.2,2.9H104.8z"/>
		<path class="st0" d="M136.5,274.2c0,0.6,0.1,1.1,0.2,1.6c0.7,2.8,3.2,4.8,6.1,4.8c4.3,0,7-3.4,7-9c0-4.8-2.3-8.8-6.9-8.8
			c-2.8,0-5.4,2-6.1,5.1c-0.1,0.5-0.2,1.1-0.2,1.8V274.2z M129.5,245.9h6.9v15.9h0.1c1.7-2.6,4.7-4.4,8.8-4.4
			c6.7,0,11.5,5.6,11.4,13.9c0,9.8-6.2,14.7-12.4,14.7c-3.5,0-6.7-1.4-8.7-4.7h-0.1l-0.3,4.1h-5.9c0.1-1.9,0.2-4.9,0.2-7.7V245.9z"
			/>
		<path class="st0" d="M168.4,271.8c0,5.3,2.6,9.3,6.8,9.3c3.9,0,6.7-3.8,6.7-9.4c0-4.3-1.9-9.2-6.6-9.2
			C170.4,262.5,168.4,267.3,168.4,271.8 M189.1,271.6c0,10.1-7.1,14.6-14.1,14.6c-7.7,0-13.7-5.3-13.7-14.1c0-9,5.9-14.5,14.2-14.5
			C183.6,257.5,189.1,263.2,189.1,271.6"/>
		<path class="st0" d="M195.3,266.9c0-3.7-0.1-6.4-0.2-8.8h6l0.3,5.2h0.2c1.4-3.8,4.6-5.8,7.5-5.8c0.7,0,1.1,0.1,1.6,0.2v6.5
			c-0.6-0.1-1.2-0.2-2.1-0.2c-3.3,0-5.6,2.1-6.2,5.2c-0.1,0.6-0.2,1.4-0.2,2.1v14.2h-6.9V266.9z"/>
		<path class="st0" d="M229.9,272.1c-4.9-0.1-9.6,1-9.6,5.1c0,2.7,1.7,3.9,3.9,3.9c2.8,0,4.8-1.8,5.5-3.8c0.2-0.5,0.2-1,0.2-1.5
			V272.1z M236.6,278.9c0,2.5,0.1,4.9,0.4,6.6h-6.2l-0.5-3h-0.2c-1.6,2.1-4.5,3.7-8.1,3.7c-5.5,0-8.6-4-8.6-8.2
			c0-6.9,6.1-10.4,16.3-10.4v-0.4c0-1.8-0.7-4.8-5.6-4.8c-2.7,0-5.5,0.8-7.4,2l-1.4-4.5c2-1.2,5.6-2.4,9.9-2.4
			c8.8,0,11.3,5.6,11.3,11.6V278.9z"/>
		<path class="st0" d="M336.7,272c0,6,3.4,10.5,8.2,10.5c4.7,0,8.3-4.4,8.3-10.6c0-4.6-2.3-10.4-8.2-10.4
			C339.3,261.4,336.7,266.8,336.7,272 M358.3,271.7c0,10.1-7,14.5-13.6,14.5c-7.3,0-13.1-5.4-13.1-14c0-9.1,6-14.4,13.5-14.4
			C353,257.7,358.3,263.4,358.3,271.7"/>
		<path class="st0" d="M370,274.4c0,0.7,0.1,1.4,0.2,2c0.9,3.4,3.9,5.8,7.4,5.8c5.2,0,8.3-4.3,8.3-10.5c0-5.4-2.9-10.1-8.1-10.1
			c-3.4,0-6.6,2.4-7.5,6.1c-0.2,0.6-0.3,1.4-0.3,2V274.4z M365.1,267.2c0-3.5-0.1-6.3-0.2-8.9h4.4l0.3,4.7h0.1
			c2-3.3,5.2-5.2,9.7-5.2c6.6,0,11.6,5.6,11.6,13.8c0,9.8-6,14.6-12.4,14.6c-3.6,0-6.8-1.6-8.4-4.3H370v14.8h-4.9V267.2z"/>
		<path class="st0" d="M414.9,269.3c0.1-3.1-1.3-8-6.9-8c-5.1,0-7.2,4.6-7.6,8H414.9z M400.4,272.8c0.1,6.7,4.3,9.5,9.3,9.5
			c3.5,0,5.7-0.6,7.5-1.4l0.9,3.5c-1.7,0.8-4.8,1.7-9.1,1.7c-8.4,0-13.4-5.6-13.4-13.8c0-8.2,4.8-14.6,12.8-14.6
			c8.9,0,11.3,7.8,11.3,12.8c0,1-0.1,1.7-0.2,2.3H400.4z"/>
		<path class="st0" d="M438.2,262.4c-3.5,0-6,2.6-6.6,6.3c-0.1,0.7-0.2,1.5-0.2,2.3v14.5h-5v-18.7c0-3.2-0.1-6-0.2-8.5h4.3l0.2,5.4
			h0.2c1.2-3.7,4.3-6,7.6-6"/>
		<path class="st0" d="M243.6,245.9h6.9v15.9h0.1c0.8-1.3,2-2.4,3.4-3.1c1.4-0.8,3-1.2,4.8-1.2c4.7,0,9.6,3.1,9.6,11.9v16.2h-6.9
			v-15.4c0-3.9-1.5-7-5.3-7c-2.7,0-4.6,1.8-5.4,3.9c-0.2,0.6-0.3,1.4-0.3,2.1v16.4h-6.9V245.9z"/>
		<path class="st0" d="M296.2,284.6c-1.3,0.6-4.2,1.6-7.8,1.6c-8.2,0-13.6-5.6-13.6-13.9c0-8.4,5.7-14.5,14.6-14.5
			c2.9,0,5.5,0.7,6.9,1.5l-1.1,3.8c-1.2-0.6-3-1.3-5.7-1.3c-6.2,0-9.6,4.7-9.6,10.3c0,6.3,4.1,10.2,9.5,10.2c2.8,0,4.7-0.7,6.1-1.3
			L296.2,284.6z"/>
		<path class="st0" d="M305.3,272c0,6,3.4,10.5,8.2,10.5c4.7,0,8.3-4.4,8.3-10.6c0-4.6-2.3-10.4-8.2-10.4
			C307.8,261.4,305.3,266.8,305.3,272 M326.9,271.7c0,10.1-7,14.5-13.6,14.5c-7.3,0-13.1-5.4-13.1-14c0-9.1,6-14.4,13.5-14.4
			C321.6,257.7,326.9,263.4,326.9,271.7"/>
	</g>
</g>
</svg>
